HIERARCHY
ROOT SimulationBone
{
	OFFSET 0.000000 0.000000 0.000000
	CHANNELS 6 Xposition Yposition Zposition Zrotation Yrotation Xrotation 
	JOINT Hips
	{
		OFFSET 0.000000 0.000000 0.000000
		CHANNELS 6 Xposition Yposition Zposition Zrotation Yrotation Xrotation 
		JOINT LeftUpLeg
		{
			OFFSET 0.103462 1.857831 10.548496
			CHANNELS 3 Zrotation Yrotation Xrotation
			JOINT LeftLeg
			{
				OFFSET 43.500000 -0.000038 -0.000010
				CHANNELS 3 Zrotation Yrotation Xrotation
				JOINT LeftFoot
				{
					OFFSET 42.372192 0.000011 0.000010
					CHANNELS 3 Zrotation Yrotation Xrotation
					JOINT LeftToe
					{
						OFFSET 17.299999 0.000001 -0.000001
						CHANNELS 3 Zrotation Yrotation Xrotation
						End Site
						{
							OFFSET 0.000000 0.000000 0.000000
						}
					}
				}
			}
		}
		JOINT RightUpLeg
		{
			OFFSET 0.103456 1.857825 -10.548502
			CHANNELS 3 Zrotation Yrotation Xrotation
			JOINT RightLeg
			{
				OFFSET 43.500038 -0.000023 0.000011
				CHANNELS 3 Zrotation Yrotation Xrotation
				JOINT RightFoot
				{
					OFFSET 42.372261 -0.000008 0.000011
					CHANNELS 3 Zrotation Yrotation Xrotation
					JOINT RightToe
					{
						OFFSET 17.299994 -0.000004 0.000002
						CHANNELS 3 Zrotation Yrotation Xrotation
						End Site
						{
							OFFSET 0.000000 0.000000 0.000000
						}
					}
				}
			}
		}
		JOINT Spine
		{
			OFFSET 6.901965 -2.603729 -0.000002
			CHANNELS 3 Zrotation Yrotation Xrotation
			JOINT Spine1
			{
				OFFSET 12.588101 -0.000004 0.000003
				CHANNELS 3 Zrotation Yrotation Xrotation
				JOINT Spine2
				{
					OFFSET 12.343205 0.000006 0.000001
					CHANNELS 3 Zrotation Yrotation Xrotation
					JOINT Neck
					{
						OFFSET 25.832897 -0.000008 -0.000001
						CHANNELS 3 Zrotation Yrotation Xrotation
						JOINT Head
						{
							OFFSET 11.766601 0.000009 -0.000008
							CHANNELS 3 Zrotation Yrotation Xrotation
							End Site
							{
								OFFSET 0.000000 0.000000 0.000000
							}
						}
					}
					JOINT LeftShoulder
					{
						OFFSET 19.745893 -1.480370 6.000097
						CHANNELS 3 Zrotation Yrotation Xrotation
						JOINT LeftArm
						{
							OFFSET 11.284136 -0.000006 -0.000021
							CHANNELS 3 Zrotation Yrotation Xrotation
							JOINT LeftForeArm
							{
								OFFSET 33.000042 0.000005 0.000030
								CHANNELS 3 Zrotation Yrotation Xrotation
								JOINT LeftHand
								{
									OFFSET 25.200008 0.000013 0.000010
									CHANNELS 3 Zrotation Yrotation Xrotation
									End Site
									{
										OFFSET 0.000000 0.000000 0.000000
									}
								}
							}
						}
					}
					JOINT RightShoulder
					{
						OFFSET 19.746088 -1.480379 -6.000076
						CHANNELS 3 Zrotation Yrotation Xrotation
						JOINT RightArm
						{
							OFFSET 11.284133 -0.000016 -0.000013
							CHANNELS 3 Zrotation Yrotation Xrotation
							JOINT RightForeArm
							{
								OFFSET 33.000095 0.000019 0.000001
								CHANNELS 3 Zrotation Yrotation Xrotation
								JOINT RightHand
								{
									OFFSET 25.199785 0.000138 0.000422
									CHANNELS 3 Zrotation Yrotation Xrotation
									End Site
									{
										OFFSET 0.000000 0.000000 0.000000
									}
								}
							}
						}
					}
				}
			}
		}
	}
}
MOTION
Frames: 11
Frame Time: 0.016667
120.921302 0.000000 -18.438396 0.000000 -86.952698 0.000000 5.526543 88.969978 1.164937 103.713718 -0.195035 176.485050 169.429276 1.461602 -177.024215 -29.697337 -2.859559 -1.060508 68.896950 1.490002 1.806502 21.454550 0.003095 0.000001 -178.309711 3.269603 -169.434413 -65.725980 -0.826928 0.653705 75.293409 1.783877 7.533114 21.454563 -0.003100 -0.000021 7.542952 -1.553830 1.783871 5.026350 -3.183139 3.500362 4.708377 -3.161812 3.519499 -15.600289 -11.106524 -7.031435 -10.232494 15.270037 -15.027345 -158.404462 -71.480345 -23.640093 21.346140 53.213705 37.991611 -106.941008 -1.286706 3.145320 -5.305489 -5.370812 45.156910 -160.307406 75.148387 21.588281 12.825563 -50.095615 -32.227622 -99.132053 1.139516 -2.835413 -9.951123 2.966261 -39.093929 
121.144210 0.000000 -19.869005 0.000000 -89.443689 0.000000 5.725533 89.096428 0.954147 103.535138 -0.340640 177.753993 169.353296 1.111640 -177.428092 -28.109328 -2.708864 -1.518537 67.596608 1.762331 1.578471 21.454551 0.003084 -0.000002 -176.623000 2.570068 -171.495456 -62.089921 -0.296527 0.318695 73.278269 1.943883 6.888336 21.454558 -0.003103 -0.000015 7.348366 -1.389621 1.890935 4.638911 -2.853343 3.726234 4.321139 -2.830645 3.743386 -16.404817 -10.101454 -6.889219 -9.322341 14.789624 -14.347957 -157.081734 -71.697160 -24.996692 26.178934 53.089058 41.239257 -107.312767 -1.248234 3.158618 -4.608778 -5.423768 44.418930 -160.919832 75.439190 20.957818 10.178118 -48.959321 -30.857995 -98.690198 1.197076 -2.817450 -8.793097 1.251376 -38.678640 
121.366506 0.000000 -21.370509 0.000000 268.205283 0.000000 5.880018 89.094711 0.762325 103.429960 -0.451594 178.844929 169.036500 0.697699 -177.906839 -26.996323 -2.594629 -1.936492 66.438854 2.004013 1.357853 21.454553 0.003086 -0.000001 -175.143727 1.833889 -173.808220 -58.634823 -0.001400 0.016414 73.719788 2.127629 6.901930 21.454555 -0.003109 -0.000014 7.216897 -1.209598 1.966776 4.379700 -2.492117 3.887690 4.062086 -2.468464 3.902655 -17.411682 -9.122482 -6.782184 -8.360298 14.111702 -13.656979 -156.353848 -71.963388 -25.739677 30.753247 52.993073 43.922009 -107.665910 -1.186004 3.169879 -3.679239 -5.248128 44.248830 -161.340993 75.677208 20.524117 6.585830 -47.737158 -29.020547 -98.052952 1.404097 -2.805582 -7.422439 -0.274589 -38.260741 
121.587168 0.000000 -22.939051 0.000000 266.004543 0.000000 5.985518 88.984807 0.587677 103.369928 -0.539646 179.766517 168.516284 0.234239 -178.477291 -26.220437 -2.497906 -2.292552 65.348010 2.205471 1.160007 21.454554 0.003094 0.000001 -173.924732 1.094593 -176.308573 -55.370594 0.137579 -0.223004 75.547664 2.149503 6.825489 21.454553 -0.003114 -0.000016 7.138010 -1.020183 2.013150 4.227128 -2.112514 3.988735 3.909635 -2.088279 4.001399 -18.456536 -8.159758 -6.695753 -7.504841 13.343984 -12.981234 -156.059058 -72.286222 -26.035816 34.828218 52.959622 46.071058 -108.022972 -1.129165 3.181584 -2.371913 -4.865012 44.838763 -161.817438 75.847934 20.035050 2.293439 -46.435538 -26.742612 -97.206925 1.682459 -2.789044 -5.836329 -1.872431 -38.022782 
121.805176 0.000000 -24.570773 0.000000 263.960603 0.000000 6.036565 88.786697 0.428431 103.325961 -0.613363 -179.468481 167.830179 -0.264888 -179.156613 -25.644155 -2.397622 -2.563272 64.248515 2.357086 0.999980 21.454555 0.003100 0.000002 -173.023336 0.375398 -178.929373 -52.308996 0.194941 -0.358481 77.692294 1.845385 5.891371 21.454553 -0.003116 -0.000017 7.101156 -0.827686 2.031796 4.159554 -1.727129 4.033294 3.842153 -1.702644 4.043627 -19.375140 -7.203560 -6.610129 -6.909396 12.598454 -12.339014 -156.032610 -72.667512 -26.054882 38.158172 53.025762 47.714533 -108.406508 -1.106822 3.196540 -0.530338 -4.319092 46.385210 -162.605998 75.934521 19.228207 -2.471871 -45.055393 -24.030797 -96.138655 1.953761 -2.758220 -4.021614 -3.792440 -38.161960 
122.019509 0.000000 -26.261818 0.000000 262.077091 0.000000 6.026027 88.517641 0.285401 103.263141 -0.666820 -178.848919 166.997163 -0.806984 -179.959308 -25.158283 -2.282729 -2.731551 63.081060 2.454171 0.892174 21.454553 0.003098 0.000001 -172.511012 -0.311082 178.424961 -49.522700 0.253424 -0.325462 79.408217 1.155649 3.683972 21.454553 -0.003113 -0.000016 7.095892 -0.633936 2.025127 4.155704 -1.339452 4.026685 3.838375 -1.315005 4.034684 -20.064260 -6.276762 -6.498497 -6.651537 11.973855 -11.740376 -156.159195 -73.086661 -25.916124 40.513280 53.219076 48.823077 -108.811732 -1.136028 3.215960 1.953744 -3.649567 48.985394 -163.920028 75.941065 17.885276 -7.495918 -43.591986 -20.980223 -94.840224 2.220293 -2.714923 -1.980789 -6.172158 -38.859494 
122.229146 0.000000 -28.008328 0.000000 260.355040 0.000000 5.943513 88.184021 0.170063 103.126422 -0.643552 -178.381374 165.962860 -1.483105 179.114785 -24.765728 -2.188265 -2.809708 61.850886 2.511830 0.848497 21.454551 0.003092 0.000000 -172.503790 -0.965606 175.958077 -47.322876 0.441310 0.006285 81.170131 0.268703 1.239432 21.454555 -0.003111 -0.000015 7.112217 -0.423083 1.998398 4.195806 -0.917632 3.980412 3.878517 -0.893458 3.985874 -20.664667 -5.532856 -6.323868 -6.521325 11.502071 -11.190395 -156.549013 -73.440464 -25.508957 41.741293 53.533310 49.149907 -109.124401 -1.185874 3.233136 4.959719 -2.732807 52.321895 -165.822198 75.966452 15.941109 -12.575117 -42.058012 -18.095813 -93.325368 2.809216 -2.691964 0.157581 -8.747751 -40.153373 
122.433066 0.000000 -29.806446 0.000000 258.793365 0.000000 5.786010 87.794011 0.093970 102.887402 -0.476971 -178.070730 164.706835 -2.388604 178.018411 -24.457787 -2.123022 -2.777263 60.567646 2.513059 0.862888 21.454549 0.003087 -0.000000 -173.090233 -1.610010 173.931305 -45.994304 0.818751 0.679880 83.505561 -0.591739 -0.388700 21.454555 -0.003117 -0.000017 7.147361 -0.178665 1.959297 4.274614 -0.428896 3.910744 3.957321 -0.405146 3.913261 -21.342752 -5.083342 -6.068337 -6.322914 11.171600 -10.693799 -157.308652 -73.650716 -24.725883 41.722612 53.958229 48.457761 -109.268764 -1.232065 3.242816 8.329413 -1.352955 56.269389 -168.310935 76.090628 13.397402 -17.570182 -40.524247 -15.779768 -91.634512 3.987510 -2.702448 2.223051 -11.133042 -42.007617 
122.630249 0.000000 -31.652314 0.000000 257.389318 0.000000 5.579687 87.373840 0.056422 102.632813 -0.120783 -177.902372 163.412016 -3.546090 176.480094 -24.066928 -1.946838 -2.450028 59.195042 2.289484 0.864937 21.454550 0.003085 -0.000000 -174.190902 -2.305690 172.721113 -45.488987 1.137684 1.303142 86.092601 -1.230807 -1.494386 21.454557 -0.003121 -0.000018 7.227068 0.100540 1.922620 4.443470 0.127823 3.847655 4.126148 0.151180 3.846816 -22.123063 -4.745451 -5.794006 -6.199993 10.881639 -10.239018 -158.301284 -73.827224 -23.705022 40.459567 54.526860 46.833452 -109.432702 -1.324154 3.256083 12.000291 0.744715 61.863290 -171.078575 76.241367 10.569803 -22.403252 -39.021601 -13.770023 -89.896510 5.449641 -2.723274 4.012414 -12.834231 -44.319027 
122.819674 0.000000 -33.542075 0.000000 256.138908 0.000000 5.350290 86.947384 0.048665 102.462877 0.429350 -177.864589 162.270981 -4.940367 174.371020 -23.475109 -1.559548 -1.737629 57.791362 1.678620 0.658205 21.454551 0.003086 -0.000001 -175.699051 -3.064575 172.548982 -45.690859 1.164491 1.459818 88.472821 -1.473827 -2.514625 21.454558 -0.003114 -0.000017 7.378126 0.406963 1.901811 4.755804 0.736003 3.818685 4.438443 0.759171 3.814185 -22.974577 -4.302924 -5.566232 -6.330141 10.523436 -9.798639 -159.402862 -74.102229 -22.571419 37.996505 55.230795 44.439549 -109.803940 -1.503333 3.284321 16.039048 3.465292 69.888099 -173.787152 76.346892 7.803644 -26.960335 -37.547486 -11.726425 -88.278209 6.799968 -2.745732 5.301853 -13.477694 -46.967667 
123.000319 0.000000 -35.471871 0.000000 255.037263 0.000000 5.095237 86.511063 0.053282 102.414590 1.049801 -177.976306 161.250890 -6.452399 172.388948 -22.935553 -1.148769 -1.101302 56.844996 0.695739 -0.429724 21.454553 0.003091 -0.000001 -177.540823 -3.779293 172.896062 -46.503629 0.998329 1.094792 90.442454 -1.276994 -3.210957 21.454560 -0.003104 -0.000015 7.602561 0.713077 1.896724 5.215034 1.340457 3.823684 4.897614 1.363642 3.815546 -23.790179 -3.693444 -5.367872 -6.682632 10.034440 -9.303150 -160.728284 -74.500646 -21.207705 34.493718 55.929224 41.490830 -110.305601 -1.704135 3.320164 20.159981 5.854960 78.619376 -176.562603 76.433637 4.970107 -31.032742 -36.165659 -9.578488 -87.009034 7.856090 -2.763140 6.019174 -13.209197 -49.986889 
